<svg width="240" height="192" viewBox="0 0 240 192" fill="none" xmlns="http://www.w3.org/2000/svg">
<path d="M16 79.995H40V143.995H24C21.8783 143.995 19.8434 144.838 18.3431 146.338C16.8429 147.838 16 149.873 16 151.995C16 154.117 16.8429 156.152 18.3431 157.652C19.8434 159.152 21.8783 159.995 24 159.995H216C218.122 159.995 220.157 159.152 221.657 157.652C223.157 156.152 224 154.117 224 151.995C224 149.873 223.157 147.838 221.657 146.338C220.157 144.838 218.122 143.995 216 143.995H200V79.995H224C225.741 79.9933 227.433 79.4239 228.821 78.3731C230.209 77.3224 231.216 75.8478 231.69 74.1729C232.164 72.498 232.078 70.7142 231.447 69.0922C230.815 67.4702 229.672 66.0984 228.19 65.185L124.19 1.18502C122.93 0.410204 121.479 0 120 0C118.521 0 117.07 0.410204 115.81 1.18502L11.81 65.185C10.3283 66.0984 9.1849 67.4702 8.5533 69.0922C7.92171 70.7142 7.83636 72.498 8.31022 74.1729C8.78408 75.8478 9.79128 77.3224 11.179 78.3731C12.5668 79.4239 14.2594 79.9933 16 79.995ZM56 79.995H88V143.995H56V79.995ZM136 79.995V143.995H104V79.995H136ZM184 143.995H152V79.995H184V143.995ZM120 17.385L195.74 63.995H44.26L120 17.385ZM240 183.995C240 186.117 239.157 188.152 237.657 189.652C236.157 191.152 234.122 191.995 232 191.995H8C5.87827 191.995 3.84344 191.152 2.34315 189.652C0.842854 188.152 0 186.117 0 183.995C0 181.873 0.842854 179.838 2.34315 178.338C3.84344 176.838 5.87827 175.995 8 175.995H232C234.122 175.995 236.157 176.838 237.657 178.338C239.157 179.838 240 181.873 240 183.995Z" fill="white"/>
</svg>
