<svg version="1.0" xmlns="http://www.w3.org/2000/svg" width="533.333" height="330.667" viewBox="0 0 400 248"><path d="M217.5 6.5c-3.8 1.3-22.5 7.1-41.5 12.9-50.2 15.4-70.2 22.6-74.7 26.8-3 2.8-3 7.2-.1 9.2 3.5 2.5 6.7 2 8.5-1.2 1.8-3.2 1.4-3 23.2-10.8 8.4-3 15.6-5.2 15.9-4.9.3.3-.8 6.7-2.5 14.3-1.7 7.5-4.3 18.9-5.7 25.2-5 23-13.8 61.7-15.6 69-1 4.1-2.1 8.7-2.4 10.2-.4 1.6-1.7 3.2-3.3 4-3.1 1.5-4 4.2-4.2 12.3-.1 6.2 1.9 9.5 5.8 9.5 3.4 0 4.6-1.2 6.6-7.1 2.1-5.8 11.2-43.8 22-92.4 4.8-21.5 9.3-41.3 9.9-44 1.3-5.6.8-5.3 20.1-11 10.5-3.1 33.3-10 41.5-12.6 5.9-1.9 10-4.7 10-7 0-1.4-3.8-4.9-5.2-4.8-.7 0-4.4 1.1-8.3 2.4z"/><path d="M244.5 21.1c-4.4 2.3-13.2 17.2-31.4 53.7L203 95.1l-15.1-.2c-16.2-.1-17.1-.5-10.8-4.7 3-2.1 4.1-2.3 9.9-1.7 9.2.9 10.1.8 11.9-.9 1.1-1.2 1.3-2.2.5-4.3-.7-2.2-1.9-3.1-5.9-4.1-10.7-2.8-21.2.2-27.9 7.9-5.7 6.7-7.8 13.5-8.4 27.1-.4 9.9-.1 12.7 1.7 18.5 3.8 12.8 11.3 19.7 18.5 17.3 5.9-1.9 12.2-10.3 24.1-31.8 3.8-6.7 7.2-12.5 7.6-12.8 1.6-.9 17.7.9 17.3 2-.2.6-1.3 5.4-2.5 10.6-9.5 44.3-10.8 52.9-8.5 58.4 1.9 4.6 5.5 4.9 9.7.7 3.2-3.2 3.8-7.1 1.4-9.1-.8-.7-1.5-2.7-1.5-4.5 0-4.1 7.5-40.4 11.1-53.7l1-4 9.5.7c10.3.8 12.4.1 12.4-4.1 0-3.3-3.4-5.1-11.5-5.8-3.8-.4-7.1-.9-7.4-1.2-.3-.2 1.2-7.5 3.3-16.2 2.1-8.6 4.9-20.4 6.3-26.2 1.3-5.8 2.7-14.8 3-20.1.5-9.2.5-9.7-1.8-11.3-2.7-1.8-3.6-1.9-6.4-.5zM236 67.2c-2.8 11.7-5.5 23-6.1 25l-1 3.8h-6.8c-3.7 0-7-.3-7.4-.6-.3-.4 3.3-8.3 8-17.8 11.6-23.3 17.6-34.2 18-32.9.3.7-1.9 10.8-4.7 22.5zM171.8 102c1.5 1.8 3.3 2.1 13.5 2.7 6.4.3 11.7.9 11.7 1.2 0 .9-9.9 18.1-15.2 26.3-7 10.9-9.9 10.6-13.5-1.6-1.9-6.3-2.2-21.7-.4-26.9 1.5-4.3 1.7-4.4 3.9-1.7zM322.5 20.7c-10.7 1.5-26.6 7.8-36.2 14.4-10.6 7.3-19.5 17.8-22.3 26.3-1.4 4.5-.9 14.7 1.1 18.9 1.4 3 5.3 4.6 7.8 3 1.7-1.1 1.7-2.5.5-12.4-.7-6.3 1.1-11 6.8-17.4 5.1-5.9 20.1-16.6 21.3-15.3.1.2-1.5 7.5-3.6 16.3-2.2 8.8-4.9 20.3-6.2 25.5l-2.3 9.5-5 .5c-9.3 1-13.3 5.9-10.1 12.6 1 2 3.2 4.1 5.7 5.4 2.2 1.1 4 2.2 4 2.5 0 .5-5.5 24.5-8.9 39-1.1 4.4-2.5 11.9-3.2 16.7-1.1 7.8-1 9 .5 11.2 3.2 4.9 8.7 2.4 11.9-5.4 1.5-3.5 1-7.1-1.1-8.4-1-.6.1-6 6.9-35.1 2.2-9.3 4.5-17.3 5.2-17.7.7-.4 2.8-.8 4.7-.8 4.2 0 5.9 1.7 18.8 19.4 10.6 14.6 18.6 23.4 22.9 25.2 7.4 3.2 16.5 0 20.2-6.9 1.3-2.4 1.2-2.9-.4-4.7-2.4-2.7-5.1-2.5-8.7.5-1.6 1.4-3.8 2.5-4.9 2.5-3 0-10.4-7.5-17.4-17.5-3.5-4.9-8.6-11.9-11.5-15.5-4.6-5.8-5-6.6-3.5-7.5 15.3-8.9 25.3-18.3 32.6-30.5 19.9-33.5 7.9-58.9-25.6-54.3zM340.8 32c13 5.9 7.9 30-10.7 50.1-6.5 7.1-17.2 14.4-22.8 15.5-3.5.7-8.3-1.8-8.3-4.4 0-.8 2.4-11.5 5.4-23.6 7.4-30.3 7.3-29.2 4.7-32l-2.2-2.4 4.3-1.6c10.3-3.9 23-4.6 29.6-1.6zM76 26.3c-23 6.9-52.5 29-60.1 45-6.6 14-2.3 21.4 16.5 29.3 21.8 9 31.8 13.9 34.6 16.9l2 2.1-11.7 10c-29.5 25.1-40 40.4-33.4 48.5 4.5 5.6 19.4 1.4 32.8-9.2 6.7-5.4 15.3-15.5 19-22.4 3.1-5.9 6.3-16.3 6.3-20.7 0-3.6.4-4.1 8.7-10 15.7-11.4 18.3-13.7 18.3-16.1 0-2.9-1.8-4.7-4.5-4.7-1.2 0-6.7 3.3-12.3 7.4-16.3 12.1-14.4 11.4-19.4 7.3-5.2-4.2-16.7-10-33.1-16.8C26.6 87.5 23 85 23 81.3c0-14.8 47.2-48.9 65.2-47.1 2.8.3 3.3.7 3.6 3.3.5 4 1.9 5.5 5.3 5.5 3.6 0 5.3-3 4.6-8.2-.6-4.6-2.9-7.5-7.4-9.4-4.5-1.9-9.6-1.7-18.3.9zm-5.9 108.5c-3.4 11.6-18.4 27.8-31.5 33.8-3.2 1.4-6 2.3-6.3 2-.9-.9 4.1-7.6 11.5-15.2 7.6-7.9 25-23.4 26.2-23.4.5 0 .5 1.3.1 2.8zM113.5 204.9c-5.5 2.5-12.2 10-13.1 14.6-1.9 10.1 9.1 21.5 20.8 21.5 8.9 0 15-3.5 18.8-11 4.1-8.1 3.4-14.3-2.3-19.7-7.5-7.2-16.2-9.1-24.2-5.4zm15 3.2c2.1.6 5.4 2.6 7.2 4.4 2.9 2.9 3.3 4 3.3 8.4 0 6.4-1.9 10.3-6.4 13-8.1 5-20.2 3-24.6-4.1-2.5-4.2-2.5-8.1.1-13.5 4.2-8.6 10.2-11 20.4-8.2z"/><path d="M113.7 211.7c-3 3.2-5.7 9.2-5.6 12.5 0 1.5.6.6 1.4-2.2 2.2-6.9 6.3-11.2 11.6-12l4.4-.7-4.6-.2c-3.7-.1-5 .4-7.2 2.6zM239.2 205.5c-7 3.6-10.4 8.2-11 14.8-.5 6.6 2.7 13 8.5 17.1 5.7 4 15 4.7 21.7 1.7 4.8-2.1 4.8-2.1 5.3-.1 1.2 4.6 3.5 1.2 4.7-7.1 1-6.9 0-9.6-4.1-10.9-3.8-1.3-8.3-.6-8.3 1.3 0 .7 1.5 1.7 3.2 2.2 3.9 1.2 4.5 3.2 2.3 7.9-4.6 9.7-21.7 7.2-27-3.9-2-4.4-1.5-8.8 1.8-13.5 3.1-4.6 8.1-7 14.5-7 4.7 0 5.7.4 9.6 4 4.9 4.5 6.9 3.9 3.9-1.2-2.3-4-8.3-7.1-14.7-7.5-4.1-.4-6.2.1-10.4 2.2zM286.5 204c-3.9 1.2-11.1 7.3-13 11.1-4.2 7.9.3 18.6 9.7 23.3 8.1 4 18.2 3.1 24.2-2.2 3-2.7 6.6-11.3 6.6-15.8 0-11-15.4-20.1-27.5-16.4zm16.2 5.5c6.5 3.3 8.8 7.6 7.8 14.3-2.2 14.9-25 17.8-32.1 4-2.5-4.8-.2-11.8 5.6-17.7 2.7-2.7 3.9-3.1 8.4-3.1 3.6 0 6.8.8 10.3 2.5z"/><path d="M286.2 210.6c-3.6 2.5-8.7 14.4-6.2 14.4.5 0 1-1 1-2.3 0-3.3 5.7-11.6 8.3-12.2 1.2-.2 3.6-.6 5.2-.8 2.1-.3 1.6-.4-1.5-.6-2.7 0-5.5.5-6.8 1.5zM184.4 205.1c-1.1 1.8 1.2 3.1 6.3 3.6 9.7.9 8.9-.3 9.6 14 .7 13.9 1.6 19.4 3.2 19.3.6 0 1-6 1-15.8v-15.7l5.7-.5c10.8-1 9-3.5-3.7-5-11.7-1.3-21.2-1.3-22.1.1zM72.7 206.5c-7.7 2.7-11.7 8.8-11.7 18 0 5.7 2.3 10.2 7.2 13.8 3.3 2.5 12.2 3.4 17.1 1.8 4.3-1.4 10.7-8.2 10.7-11.3 0-2-.4-1.8-3.1 1.5-4 4.9-7.7 6.7-13.4 6.7-9.3 0-14.5-4.7-14.5-13 0-4.7 1.7-8.5 5.5-12 2.3-2.2 3.6-2.5 9.5-2.5 7.6 0 11.4 1.9 13.8 6.8 1.7 3.4 3.2 3.5 3.2.1 0-4-5.8-9-12-10.3-6.4-1.4-7.6-1.3-12.3.4zM222.7 206.7c-1.1 1.7-2.8 20.9-2.5 27.3.2 5 .7 6.5 1.8 6.5 1.2 0 1.6-2.9 2.4-16.3.5-10.6.5-16.7-.2-17.4-.5-.5-1.2-.6-1.5-.1zM177.3 208.2c-.4.7-.8 6.8-.8 13.5s-.3 12.4-.6 12.8c-.6.6-9.4-8.8-18.8-20.3-2.8-3.4-5.8-6.2-6.6-6.2-1.4 0-1.5.3-3.4 18.2-1.6 14.2-1.5 17 .7 16.6 1.4-.3 1.8-1.9 2.3-10.8.4-5.8.7-12.2.8-14.3.1-2.4.5-3.7 1.2-3.5.6.2 6.4 6.9 12.8 14.8s12.2 14.5 12.8 14.7c2.8 1 3.5-3.8 2.8-20.3-.7-15.5-1.3-18.1-3.2-15.2z"/><path d="M219.1 208.3c-.1 2.1-3.9 3.7-9.1 3.7-3.5 0-3.8.2-3.2 2.2.5 1.9.7 2 1 .5.3-1.3 1.4-1.7 5.2-1.7 5.1 0 7.5-1.6 6.7-4.7-.4-1.7-.5-1.7-.6 0zM182.4 225.3c.1 17.6.1 17.9-2.3 19.8-1.7 1.4-1.9 1.9-.8 1.9.9 0 2.3-1 3.1-2.2 1.7-2.4 2-16.7.6-30.3-.5-4.9-.6-1.7-.6 10.8zM227.2 211c0 1.9.2 2.7.5 1.7.2-.9.2-2.5 0-3.5-.3-.9-.5-.1-.5 1.8zM243.4 211c-5 2-10.1 11.7-7.5 14.3.8.8 1.1.2 1.1-2.2 0-3.6 3-8.5 6.3-10.3 1.2-.7 4-1.5 6.2-1.9l4-.6-4-.1c-2.2 0-4.9.3-6.1.8zM73.1 212.3c-3.2 1.6-6.1 7.3-6 11.7 0 3.4.1 3.3 1.3-1.3.8-2.7 2.5-6.1 4-7.5 2.3-2.3 3.5-2.7 8.7-2.7 3.4.1 5.2-.2 4.2-.6-2.9-1.2-9.6-1-12.2.4zM195.5 212c.3.5 1 1 1.6 1 .5 0 .9-.5.9-1 0-.6-.7-1-1.6-1-.8 0-1.2.4-.9 1zM266.4 216.7c-1.6 1.6-1.9 2.3-.9 2.7 1.6.6 3.8-1.8 3.3-3.6-.2-.9-1-.6-2.4.9zM144.5 217.7c1.4 7.4-4.7 19.3-11.8 23-1.8.9-6.1 2-9.7 2.3l-6.5.7 6.6.2c8.4.1 14-2.6 18.5-9.2 3.6-5.2 5.5-15.1 3.4-18.4-.9-1.5-1-1.2-.5 1.4zM207.2 229.5c-.2 13.2-.5 14.8-3.2 15.8-1 .3-.7.6.8.6 1.2.1 2.5-.5 2.8-1.2.2-.7.3-7.4.1-14.8l-.3-13.4-.2 13zM153.2 220.7c-.1 1.7-.5 4-.8 5-.5 1.7-.5 1.7.6 0 .6-.9.9-3.2.7-5l-.4-3.2-.1 3.2zM315.8 222.9c-1 7.1-5.7 14.5-11.2 17.3-2.2 1.2-6.8 2.4-10.1 2.8l-6 .7 6.1.2c3.5 0 7.7-.5 9.7-1.4 7.3-3 13.3-13.4 12.5-21.6-.3-2.9-.4-2.7-1 2zM96 222c0 .5.5 1 1 1 .6 0 1-.5 1-1 0-.6-.4-1-1-1-.5 0-1 .4-1 1zM258 226.4c0 .2.7.7 1.6 1 .8.3 1.2.2.9-.4-.6-1-2.5-1.4-2.5-.6zM98 229.2c0 3.2-4.9 9.2-9.4 11.5-1.7.9-6 2-9.6 2.3l-6.5.7 6.3.2c3.7 0 7.8-.5 10-1.5 7.2-2.9 12.5-10.3 10.3-14.1-.9-1.6-1-1.5-1.1.9zM152.2 234.7c-.2 5.8-.6 7.7-2.2 9.3-1.5 1.5-1.6 2-.5 2 2.5 0 3.6-3.8 3.2-11.3l-.3-7.2-.2 7.2zM226 234.4c0 5.6-.3 6.7-2.2 8l-2.2 1.6h2.2c1.5 0 2.6-.9 3.2-2.6 1.3-3.3 1.3-12.1 0-12.9-.6-.4-1 1.8-1 5.9zM270.5 231.2c-.2.7-.6 3.1-1 5.3-.4 2.2-1.4 4.8-2.2 5.7-1.4 1.6-1.4 1.8-.1 1.8 1.9 0 3.4-3.4 4.3-9.4.7-4.2 0-6.4-1-3.4zM257.5 241.5c-1.6.8-5.5 1.5-8.5 1.6l-5.5.1 4 .8c5.3 1.1 14.5-.9 14.5-3.1 0-1.2-.8-1-4.5.6z"/></svg>